<svg xmlns="http://www.w3.org/2000/svg" viewBox="0 0 581.35 91.47"><defs><style>.cls-1{fill:#fff;}.cls-2{fill:#231f20;}</style></defs><title>makelnet white last</title><g id="Layer_2" data-name="Layer 2"><g id="Layer_1-2" data-name="Layer 1"><g id="Logo"><path class="cls-1" d="M90.39,91.47H0V0H90.39ZM4,87.47H86.39V4H4Z"/><rect class="cls-1" x="23.5" y="53.73" width="12" height="12.18" rx="1.23" ry="1.23"/><rect class="cls-1" x="38.49" y="53.73" width="12" height="12.18" rx="1.23" ry="1.23"/><rect class="cls-1" x="53.47" y="53.73" width="12" height="12.18" rx="1.23" ry="1.23"/><rect class="cls-1" x="23.5" y="38.43" width="12" height="12.18" rx="1.23" ry="1.23"/><rect class="cls-1" x="38.49" y="38.43" width="12" height="12.18" rx="1.23" ry="1.23"/><rect class="cls-1" x="53.47" y="38.43" width="12" height="12.18" rx="1.23" ry="1.23"/><rect class="cls-1" x="23.5" y="23.13" width="12" height="12.18" rx="1.23" ry="1.23"/><rect class="cls-1" x="38.49" y="23.13" width="12" height="12.18" rx="1.23" ry="1.23"/><rect class="cls-1" x="53.47" y="23.13" width="12" height="12.18" rx="1.23" ry="1.23"/><path class="cls-1" d="M6.6,4,4,6.6M10.39,4,4,10.39M14.18,4,4,14.18M18,4,4,18M21.75,4,4,21.75M25.53,4,4,25.53M29.32,4,4,29.32M33.1,4,4,33.1M36.89,4,4,36.89M40.68,4,4,40.68M22.5,26,4,44.46M44.46,4,26.33,22.13M22.5,29.75,4,48.25M48.25,4,30.12,22.13M22.5,33.54,4,52M52,4,34,22.06m-10.23,14L4,55.82M55.82,4,36.32,23.5M22.5,41.11,4,59.6M27.29,36.31l-1.12,1.12M37.48,26.12l-1,1M59.6,4,41.47,22.13m-19,22.76L4,63.39M31.07,36.31,30,37.43m7.52-7.52-1,1M63.39,4,45.26,22.13M22.5,48.68,4,67.18m31-31-1.24,1.23M35,36.18l0,0m2.5-2.51-1.1,1.1M49,22.13l0,0M67.18,4,49,22.13m-25.4,29.2L4,71M38.83,36.13l-2.56,2.56M71,4,51.36,23.6M22.5,56.25,4,74.75M27.13,51.62,26,52.73M37.49,41.26l-1,1m5.93-5.94-1.09,1.1M51.49,27.26h0m1-1-1,1M74.75,4,56.62,22.13m3.78,0L78.53,4M51.48,31.05l1-1M45.1,37.43l1.12-1.12M36.5,46l1-1M29.8,52.73l1.12-1.11M4,78.53,22.5,60m0,3.78L4,82.32M34.76,51.56l-1.19,1.19m3.92-3.92-1.05,1M50.22,36.09l-1.33,1.34m3.58-3.58-1.22,1.22M82.32,4,64.2,22.12M85.62,87.47l.76-.77m-4.72.77,4.73-4.72m-8.68,4.72,8.68-8.67M73.76,87.47,86.39,74.84M69.81,87.47,86.39,70.89M65.86,87.47,86.39,66.94M61.91,87.47,86.39,63M58,87.47l29.3-29.31M54,87.47,86.39,55.09M50.05,87.47,86.39,51.14M46.1,87.47,86.39,47.18m-19.91,16L86.39,43.23M42.15,87.47,62.7,66.92m3.78-7.73L86.39,39.28M38.2,87.47,58.75,66.92m7.73-11.68L86.39,35.33M34.25,87.47,54.8,66.92M64.93,52.84,86.39,31.38M30.3,87.47,52.54,65.22M66.48,47.34,86.39,27.43M61.08,52.73l1.12-1.11M51.49,62.32l1-1M26.34,87.47,46.9,66.92m-3.95,0L22.39,87.47M52.47,57.39l-1,1m6.75-6.75-1.11,1.11M86.39,23.48,66.48,43.38m0-3.94L86.39,19.52m-34.95,35,2.89-2.89M18.44,87.47,39.09,66.82M64.51,37.45,86.39,15.57M49.23,52.73l3.24-3.25M36.25,65.71l1.24-1.24m-23,23,20.8-20.81M66.48,31.53,86.39,11.62M60.58,37.43,61.7,36.3M51.49,46.52l1-1m-7.21,7.22,1.13-1.13M36.5,61.51l1-1M10.54,87.47,31.09,66.92M66.48,27.58,86.39,7.67M56.62,37.43l1.12-1.12m-6.28,6.28,1-1M41.31,52.75l1.13-1.13M36.5,57.56l1-1M6.59,87.47,27.14,66.92m39.24-43.2L86.1,4M51.31,38.79l2.62-2.62M36.22,53.89l2.5-2.51M4,86.1,23.54,66.57"/><path class="cls-2" d="M119.74,30.75c.11.82.19,1.69.24,2.6s.08,2.11.08,3.6V65.5h-6V23.18h5.77L140.4,50.72l19.18-27.54h6.49V65.5h-6.49V37c0-.37,0-1.31.14-2.82s.15-2.64.18-3.38c-.53,1.09-1,2-1.42,2.76a20.62,20.62,0,0,1-1.1,1.8L141.2,58.85h-1.8L122.58,36l-.2-.28A18,18,0,0,1,119.74,30.75Z"/><path class="cls-2" d="M179.84,65.5l23.1-42.32h7.57L234,65.5h-7.77l-5.4-10.41H192.21l-5.4,10.41Zm15.33-15.82H218L206.54,28Z"/><path class="cls-2" d="M247.71,65.5V23.18h7.08V41.32l26.39-18.14h10.33L260.84,43.44l34,22.06H283.06l-28.27-19v19Z"/><path class="cls-2" d="M307.48,65.5V23.18h40.76v5.68H314.57V40.63h20.58v5.61H314.57V59.69h34V65.5Z"/><path class="cls-2" d="M365.38,65.5V23.18h7.09V59.61h32V65.5Z"/><path class="cls-1" d="M418.91,65.5V23.18h4.45L455,51.49a29.79,29.79,0,0,1,2.3,2.32c.81.91,1.65,1.91,2.5,3q-.31-2-.48-4.26c-.11-1.49-.16-3.53-.16-6.15V23.18h6.49V65.5h-4L429.2,36.07c-.16-.13-.4-.35-.72-.64a18.38,18.38,0,0,1-3.56-4.12c.16,1.28.28,2.65.36,4.1s.12,3.17.12,5.14v25Z"/><path class="cls-1" d="M487.62,65.5V23.18h40.76v5.68H494.71V40.63h20.58v5.61H494.71V59.69h34V65.5Z"/><path class="cls-1" d="M561.93,28.94V65.5h-7V28.94H535.55V23.18h45.8v5.76Z"/></g></g></g></svg>