<?xml version="1.0" encoding="utf-8"?>
<!-- Generator: Adobe Illustrator 22.1.0, SVG Export Plug-In . SVG Version: 6.00 Build 0)  -->
<svg version="1.1" id="Слой_1" xmlns="http://www.w3.org/2000/svg" xmlns:xlink="http://www.w3.org/1999/xlink" x="0px" y="0px"
	 viewBox="0 0 581.3 91.5" style="enable-background:new 0 0 581.3 91.5;" xml:space="preserve">
<style type="text/css">
	.st0{fill:#008EFA;}
	.st1{fill:#231F20;}
</style>
<title>makelnet last</title>
<g id="Layer_2">
	<g id="Layer_1-2">
		<g id="Logo">
			<path class="st0" d="M90.4,91.5H0V0h90.4V91.5z M4,87.5h82.4V4H4V87.5z"/>
			<path class="st0" d="M24.7,53.7h9.5c0.7,0,1.2,0.6,1.2,1.2v9.7c0,0.7-0.6,1.2-1.2,1.2h-9.5c-0.7,0-1.2-0.6-1.2-1.2V55
				C23.5,54.3,24.1,53.7,24.7,53.7z"/>
			<path class="st0" d="M39.7,53.7h9.5c0.7,0,1.2,0.6,1.2,1.2v9.7c0,0.7-0.6,1.2-1.2,1.2h-9.5c-0.7,0-1.2-0.6-1.2-1.2V55
				C38.5,54.3,39,53.7,39.7,53.7z"/>
			<path class="st0" d="M54.7,53.7h9.5c0.7,0,1.2,0.6,1.2,1.2v9.7c0,0.7-0.6,1.2-1.2,1.2h-9.5c-0.7,0-1.2-0.6-1.2-1.2V55
				C53.5,54.3,54,53.7,54.7,53.7z"/>
			<path class="st0" d="M24.7,38.4h9.5c0.7,0,1.2,0.6,1.2,1.2v9.7c0,0.7-0.6,1.2-1.2,1.2h-9.5c-0.7,0-1.2-0.6-1.2-1.2v-9.7
				C23.5,39,24.1,38.4,24.7,38.4z"/>
			<path class="st0" d="M39.7,38.4h9.5c0.7,0,1.2,0.6,1.2,1.2v9.7c0,0.7-0.6,1.2-1.2,1.2h-9.5c-0.7,0-1.2-0.6-1.2-1.2v-9.7
				C38.5,39,39,38.4,39.7,38.4z"/>
			<path class="st0" d="M54.7,38.4h9.5c0.7,0,1.2,0.6,1.2,1.2v9.7c0,0.7-0.6,1.2-1.2,1.2h-9.5c-0.7,0-1.2-0.6-1.2-1.2v-9.7
				C53.5,39,54,38.4,54.7,38.4z"/>
			<path class="st0" d="M24.7,23.1h9.5c0.7,0,1.2,0.6,1.2,1.2v9.7c0,0.7-0.6,1.2-1.2,1.2h-9.5c-0.7,0-1.2-0.6-1.2-1.2v-9.7
				C23.5,23.7,24.1,23.1,24.7,23.1z"/>
			<path class="st0" d="M39.7,23.1h9.5c0.7,0,1.2,0.6,1.2,1.2v9.7c0,0.7-0.6,1.2-1.2,1.2h-9.5c-0.7,0-1.2-0.6-1.2-1.2v-9.7
				C38.5,23.7,39,23.1,39.7,23.1z"/>
			<path class="st0" d="M54.7,23.1h9.5c0.7,0,1.2,0.6,1.2,1.2v9.7c0,0.7-0.6,1.2-1.2,1.2h-9.5c-0.7,0-1.2-0.6-1.2-1.2v-9.7
				C53.5,23.7,54,23.1,54.7,23.1z"/>
			<path class="st0" d="M6.6,4L4,6.6 M10.4,4L4,10.4 M14.2,4L4,14.2 M18,4L4,18 M21.8,4L4,21.8 M25.5,4L4,25.5 M29.3,4L4,29.3
				 M33.1,4L4,33.1 M36.9,4L4,36.9 M40.7,4L4,40.7 M22.5,26L4,44.5 M44.5,4L26.3,22.1 M22.5,29.8L4,48.3 M48.3,4L30.1,22.1
				 M22.5,33.5L4,52 M52,4L34,22.1 M23.8,36.1L4,55.8 M55.8,4L36.3,23.5 M22.5,41.1L4,59.6 M27.3,36.3l-1.1,1.1 M37.5,26.1l-1,1
				 M59.6,4L41.5,22.1 M22.5,44.9L4,63.4 M31.1,36.3L30,37.4 M37.5,29.9l-1,1 M63.4,4L45.3,22.1 M22.5,48.7L4,67.2 M35,36.2
				l-1.2,1.2 M35,36.2L35,36.2 M37.5,33.7l-1.1,1.1 M49,22.1L49,22.1 M67.2,4L49,22.1 M23.6,51.3L4,71 M38.8,36.1l-2.6,2.6 M71,4
				L51.4,23.6 M22.5,56.3L4,74.8 M27.1,51.6L26,52.7 M37.5,41.3l-1,1 M42.4,36.3l-1.1,1.1 M51.5,27.3L51.5,27.3 M52.5,26.3l-1,1
				 M74.8,4L56.6,22.1 M60.4,22.1L78.5,4 M51.5,31l1-1 M45.1,37.4l1.1-1.1 M36.5,46l1-1 M29.8,52.7l1.1-1.1 M4,78.5L22.5,60
				 M22.5,63.8L4,82.3 M34.8,51.6l-1.2,1.2 M37.5,48.8l-1,1 M50.2,36.1l-1.3,1.3 M52.5,33.8l-1.2,1.2 M82.3,4L64.2,22.1 M85.6,87.5
				l0.8-0.8 M81.7,87.5l4.7-4.7 M77.7,87.5l8.7-8.7 M73.8,87.5l12.6-12.6 M69.8,87.5l16.6-16.6 M65.9,87.5l20.5-20.5 M61.9,87.5
				L86.4,63 M58,87.5l29.3-29.3 M54,87.5l32.4-32.4 M50,87.5l36.3-36.3 M46.1,87.5l40.3-40.3 M66.5,63.2l19.9-20 M42.2,87.5
				l20.5-20.6 M66.5,59.2l19.9-19.9 M38.2,87.5l20.5-20.6 M66.5,55.2l19.9-19.9 M34.3,87.5l20.5-20.6 M64.9,52.8l21.5-21.5
				 M30.3,87.5l22.2-22.3 M66.5,47.3l19.9-19.9 M61.1,52.7l1.1-1.1 M51.5,62.3l1-1 M26.3,87.5l20.6-20.6 M43,66.9L22.4,87.5
				 M52.5,57.4l-1,1 M58.2,51.6l-1.1,1.1 M86.4,23.5L66.5,43.4 M66.5,39.4l19.9-19.9 M51.4,54.5l2.9-2.9 M18.4,87.5l20.6-20.7
				 M64.5,37.5l21.9-21.9 M49.2,52.7l3.2-3.3 M36.3,65.7l1.2-1.2 M14.5,87.5l20.8-20.8 M66.5,31.5l19.9-19.9 M60.6,37.4l1.1-1.1
				 M51.5,46.5l1-1 M45.3,52.7l1.1-1.1 M36.5,61.5l1-1 M10.5,87.5l20.5-20.6 M66.5,27.6L86.4,7.7 M56.6,37.4l1.1-1.1 M51.5,42.6l1-1
				 M41.3,52.8l1.1-1.1 M36.5,57.6l1-1 M6.6,87.5l20.5-20.6 M66.4,23.7L86.1,4 M51.3,38.8l2.6-2.6 M36.2,53.9l2.5-2.5 M4,86.1
				l19.5-19.5"/>
			<path class="st1" d="M119.7,30.8c0.1,0.8,0.2,1.7,0.2,2.6s0.1,2.1,0.1,3.6v28.5h-6V23.3h5.8l20.6,27.5l19.2-27.5h6.5v42.3h-6.5
				V37c0-0.4,0-1.3,0.1-2.8s0.1-2.6,0.2-3.4c-0.5,1.1-1,2-1.4,2.8c-0.3,0.6-0.7,1.2-1.1,1.8l-16.2,23.6h-1.8L122.6,36l-0.2-0.3
				C121.3,34.2,120.4,32.6,119.7,30.8z"/>
			<path class="st1" d="M179.8,65.6l23.1-42.3h7.6L234,65.6h-7.8l-5.4-10.4h-28.6l-5.4,10.4H179.8z M195.2,49.8H218l-11.5-21.7
				L195.2,49.8z"/>
			<path class="st1" d="M247.7,65.6V23.3h7.1v18.1l26.4-18.1h10.3l-30.7,20.3l34,22.1h-11.8l-28.3-19v19H247.7z"/>
			<path class="st1" d="M307.5,65.6V23.3h40.8V29h-33.7v11.7h20.6v5.6h-20.6v13.5h34v5.8H307.5z"/>
			<path class="st1" d="M365.4,65.6V23.3h7.1v36.4h32v5.9L365.4,65.6z"/>
			<path class="st1" d="M418.9,65.6V23.3h4.5L455,51.6c0.8,0.7,1.6,1.5,2.3,2.3c0.8,0.9,1.6,1.9,2.5,3c-0.2-1.3-0.4-2.8-0.5-4.3
				s-0.2-3.6-0.2-6.2V23.3h6.5v42.3h-4l-32.4-29.4c-0.2-0.1-0.4-0.3-0.7-0.6c-1.4-1.2-2.6-2.6-3.6-4.1c0.2,1.3,0.3,2.7,0.4,4.1
				s0.1,3.2,0.1,5.2v24.9H418.9z"/>
			<path class="st1" d="M487.6,65.6V23.3h40.8V29h-33.7v11.7h20.6v5.6h-20.6v13.5h34v5.8H487.6z"/>
			<path class="st1" d="M561.9,29v36.6h-7V29h-19.4v-5.7h45.8V29H561.9z"/>
		</g>
	</g>
</g>
</svg>
